<svg width="343" height="116" viewBox="0 0 343 116" fill="none" xmlns="http://www.w3.org/2000/svg">
<path d="M101.051 14.9209L96.4211 7.5509H97.5211L102.161 14.9209H101.051ZM96.4511 14.9209L98.8711 11.0109L99.3811 11.8609L97.5511 14.9209H96.4511ZM99.7211 11.5509L99.2311 10.6709L101.071 7.5509H102.181L99.7211 11.5509ZM105.339 14.9809C105.179 14.9809 104.995 14.9742 104.789 14.9609C104.589 14.9542 104.382 14.9409 104.169 14.9209C103.962 14.9009 103.762 14.8809 103.569 14.8609C103.382 14.8409 103.222 14.8142 103.089 14.7809V14.0009C103.262 14.0142 103.469 14.0276 103.709 14.0409C103.955 14.0542 104.215 14.0642 104.489 14.0709C104.769 14.0776 105.039 14.0809 105.299 14.0809C105.585 14.0809 105.839 14.0542 106.059 14.0009C106.285 13.9476 106.462 13.8476 106.589 13.7009C106.722 13.5542 106.789 13.3476 106.789 13.0809V12.6509C106.789 12.3509 106.705 12.1209 106.539 11.9609C106.379 11.8009 106.132 11.7209 105.799 11.7209H105.049C104.409 11.7209 103.912 11.5809 103.559 11.3009C103.212 11.0209 103.039 10.5409 103.039 9.8609V9.4609C103.039 8.75423 103.229 8.2509 103.609 7.9509C103.995 7.64423 104.542 7.4909 105.249 7.4909C105.482 7.4909 105.732 7.50423 105.999 7.5309C106.265 7.5509 106.525 7.57756 106.779 7.6109C107.032 7.64423 107.242 7.67756 107.409 7.7109V8.4909C107.109 8.4709 106.772 8.4509 106.399 8.4309C106.032 8.40423 105.685 8.3909 105.359 8.3909C105.079 8.3909 104.835 8.42423 104.629 8.4909C104.429 8.5509 104.272 8.6609 104.159 8.8209C104.052 8.9809 103.999 9.20756 103.999 9.5009V9.8009C103.999 10.1609 104.095 10.4109 104.289 10.5509C104.482 10.6909 104.752 10.7609 105.099 10.7609H105.909C106.329 10.7609 106.672 10.8376 106.939 10.9909C107.212 11.1442 107.415 11.3542 107.549 11.6209C107.682 11.8876 107.749 12.1909 107.749 12.5309V13.0509C107.749 13.5709 107.642 13.9709 107.429 14.2509C107.215 14.5309 106.929 14.7242 106.569 14.8309C106.209 14.9309 105.799 14.9809 105.339 14.9809Z" fill="white"/>
<path d="M143.239 14.9809C143.079 14.9809 142.896 14.9742 142.689 14.9609C142.489 14.9542 142.282 14.9409 142.069 14.9209C141.862 14.9009 141.662 14.8809 141.469 14.8609C141.282 14.8409 141.122 14.8142 140.989 14.7809V14.0009C141.162 14.0142 141.369 14.0276 141.609 14.0409C141.856 14.0542 142.116 14.0642 142.389 14.0709C142.669 14.0776 142.939 14.0809 143.199 14.0809C143.486 14.0809 143.739 14.0542 143.959 14.0009C144.186 13.9476 144.362 13.8476 144.489 13.7009C144.622 13.5542 144.689 13.3476 144.689 13.0809V12.6509C144.689 12.3509 144.606 12.1209 144.439 11.9609C144.279 11.8009 144.032 11.7209 143.699 11.7209H142.949C142.309 11.7209 141.812 11.5809 141.459 11.3009C141.112 11.0209 140.939 10.5409 140.939 9.8609V9.4609C140.939 8.75423 141.129 8.2509 141.509 7.9509C141.896 7.64423 142.442 7.4909 143.149 7.4909C143.382 7.4909 143.632 7.50423 143.899 7.5309C144.166 7.5509 144.426 7.57756 144.679 7.6109C144.932 7.64423 145.142 7.67756 145.309 7.7109V8.4909C145.009 8.4709 144.672 8.4509 144.299 8.4309C143.932 8.40423 143.586 8.3909 143.259 8.3909C142.979 8.3909 142.736 8.42423 142.529 8.4909C142.329 8.5509 142.172 8.6609 142.059 8.8209C141.952 8.9809 141.899 9.20756 141.899 9.5009V9.8009C141.899 10.1609 141.996 10.4109 142.189 10.5509C142.382 10.6909 142.652 10.7609 142.999 10.7609H143.809C144.229 10.7609 144.572 10.8376 144.839 10.9909C145.112 11.1442 145.316 11.3542 145.449 11.6209C145.582 11.8876 145.649 12.1909 145.649 12.5309V13.0509C145.649 13.5709 145.542 13.9709 145.329 14.2509C145.116 14.5309 144.829 14.7242 144.469 14.8309C144.109 14.9309 143.699 14.9809 143.239 14.9809Z" fill="white"/>
<path d="M181.339 14.9209L182.179 7.5509H183.179L185.059 13.7009L186.909 7.5509H187.919L188.779 14.9209H187.809L187.089 8.7809L187.259 8.8009L185.519 14.9209H184.589L182.819 8.8009L182.999 8.7909L182.309 14.9209H181.339Z" fill="white"/>
<path d="M225.755 14.9209C225.442 14.9209 225.165 14.8742 224.925 14.7809C224.692 14.6809 224.512 14.5176 224.385 14.2909C224.258 14.0576 224.195 13.7476 224.195 13.3609V7.5509H225.205V13.2109C225.205 13.4242 225.242 13.5909 225.315 13.7109C225.388 13.8242 225.485 13.9009 225.605 13.9409C225.725 13.9809 225.855 14.0009 225.995 14.0009H228.545V14.9209H225.755Z" fill="white"/>
<path d="M265.93 14.9209L261.3 7.5509H262.4L267.04 14.9209H265.93ZM261.33 14.9209L263.75 11.0109L264.26 11.8609L262.43 14.9209H261.33ZM264.6 11.5509L264.11 10.6709L265.95 7.5509H267.06L264.6 11.5509ZM269.647 14.9209C269.334 14.9209 269.057 14.8742 268.817 14.7809C268.584 14.6809 268.404 14.5176 268.277 14.2909C268.151 14.0576 268.087 13.7476 268.087 13.3609V7.5509H269.097V13.2109C269.097 13.4242 269.134 13.5909 269.207 13.7109C269.281 13.8242 269.377 13.9009 269.497 13.9409C269.617 13.9809 269.747 14.0009 269.887 14.0009H272.437V14.9209H269.647Z" fill="white"/>
<path d="M306.243 14.9209L301.613 7.5509H302.713L307.353 14.9209H306.243ZM301.642 14.9209L304.063 11.0109L304.573 11.8609L302.743 14.9209H301.642ZM304.913 11.5509L304.423 10.6709L306.263 7.5509H307.373L304.913 11.5509ZM312.6 14.9209L307.97 7.5509H309.07L313.71 14.9209H312.6ZM308 14.9209L310.42 11.0109L310.93 11.8609L309.1 14.9209H308ZM311.27 11.5509L310.78 10.6709L312.62 7.5509H313.73L311.27 11.5509ZM316.317 14.9209C316.004 14.9209 315.727 14.8742 315.487 14.7809C315.254 14.6809 315.074 14.5176 314.947 14.2909C314.821 14.0576 314.757 13.7476 314.757 13.3609V7.5509H315.767V13.2109C315.767 13.4242 315.804 13.5909 315.877 13.7109C315.951 13.8242 316.047 13.9009 316.167 13.9409C316.287 13.9809 316.417 14.0009 316.557 14.0009H319.107V14.9209H316.317Z" fill="white"/>
<path d="M2.99953 50.9707V43.6007H5.98953C6.20953 43.6007 6.4362 43.6307 6.66953 43.6907C6.90286 43.744 7.1162 43.854 7.30953 44.0207C7.50953 44.1807 7.66953 44.4207 7.78953 44.7407C7.90953 45.0607 7.96953 45.484 7.96953 46.0107C7.96953 46.5374 7.9062 46.964 7.77953 47.2907C7.65953 47.6174 7.49953 47.8674 7.29953 48.0407C7.09953 48.214 6.88286 48.3307 6.64953 48.3907C6.4162 48.4507 6.19286 48.4807 5.97953 48.4807C5.87286 48.4807 5.7262 48.4774 5.53953 48.4707C5.35953 48.464 5.16953 48.454 4.96953 48.4407C4.76953 48.4274 4.58286 48.414 4.40953 48.4007C4.2362 48.3874 4.10286 48.374 4.00953 48.3607V50.9707H2.99953ZM4.00953 47.5807H5.83953C6.05286 47.5807 6.24286 47.534 6.40953 47.4407C6.58286 47.3407 6.7162 47.1807 6.80953 46.9607C6.90953 46.734 6.95953 46.4207 6.95953 46.0207C6.95953 45.6274 6.90953 45.3207 6.80953 45.1007C6.7162 44.8807 6.58953 44.7274 6.42953 44.6407C6.26953 44.5474 6.09286 44.5007 5.89953 44.5007H4.00953V47.5807ZM10.1333 51.0307C9.73995 51.0307 9.41328 50.914 9.15328 50.6807C8.89995 50.4407 8.77328 50.1107 8.77328 49.6907V49.2707C8.77328 48.8574 8.91328 48.5207 9.19328 48.2607C9.47995 47.994 9.90995 47.8607 10.4833 47.8607H12.1533V47.3007C12.1533 47.094 12.1166 46.9207 12.0433 46.7807C11.9766 46.634 11.8499 46.524 11.6633 46.4507C11.4766 46.3774 11.1999 46.3407 10.8333 46.3407H9.19328V45.7507C9.43328 45.6974 9.71328 45.6507 10.0333 45.6107C10.3599 45.5707 10.7399 45.5474 11.1733 45.5407C11.6133 45.5407 11.9799 45.5974 12.2733 45.7107C12.5733 45.8174 12.7966 45.9974 12.9433 46.2507C13.0899 46.4974 13.1633 46.8274 13.1633 47.2407V50.9707H12.3733L12.2033 50.3807C12.1633 50.4074 12.0799 50.4574 11.9533 50.5307C11.8266 50.5974 11.6633 50.6707 11.4633 50.7507C11.2699 50.8307 11.0566 50.8974 10.8233 50.9507C10.5966 51.004 10.3666 51.0307 10.1333 51.0307ZM10.5933 50.3007C10.6933 50.3074 10.8099 50.2974 10.9433 50.2707C11.0833 50.244 11.2199 50.214 11.3533 50.1807C11.4933 50.1407 11.6199 50.1007 11.7333 50.0607C11.8533 50.0207 11.9499 49.9874 12.0233 49.9607C12.1033 49.9274 12.1466 49.9074 12.1533 49.9007V48.3607L10.7533 48.4207C10.4066 48.4407 10.1566 48.5274 10.0033 48.6807C9.85661 48.834 9.78328 49.034 9.78328 49.2807V49.5207C9.78328 49.714 9.82328 49.8707 9.90328 49.9907C9.98328 50.104 10.0833 50.184 10.2033 50.2307C10.3299 50.2774 10.4599 50.3007 10.5933 50.3007ZM14.5223 50.9707V45.6207H15.3223L15.5223 46.2007C15.7623 46.0274 16.0456 45.874 16.3723 45.7407C16.7056 45.6007 17.0489 45.5307 17.4023 45.5307C17.8023 45.5307 18.1223 45.6174 18.3623 45.7907C18.6089 45.9574 18.7856 46.1807 18.8923 46.4607C18.9989 46.7407 19.0523 47.044 19.0523 47.3707V50.9707H18.0523V47.4907C18.0523 47.2774 18.0089 47.094 17.9223 46.9407C17.8423 46.7807 17.7289 46.6574 17.5823 46.5707C17.4356 46.484 17.2556 46.4407 17.0423 46.4407C16.8423 46.4407 16.6556 46.4607 16.4823 46.5007C16.3156 46.5407 16.1556 46.5974 16.0023 46.6707C15.8489 46.7374 15.6889 46.8207 15.5223 46.9207V50.9707H14.5223ZM20.5507 44.7207C20.4374 44.7207 20.3807 44.664 20.3807 44.5507V43.7107C20.3807 43.5907 20.4374 43.5307 20.5507 43.5307H21.3007C21.354 43.5307 21.394 43.5474 21.4207 43.5807C21.4474 43.614 21.4607 43.6574 21.4607 43.7107V44.5507C21.4607 44.664 21.4074 44.7207 21.3007 44.7207H20.5507ZM20.4207 53.3407V45.6207H21.4207V50.8407C21.4207 51.3007 21.3974 51.754 21.3507 52.2007C21.304 52.654 21.244 53.034 21.1707 53.3407H20.4207ZM23.893 51.0307C23.4997 51.0307 23.173 50.914 22.913 50.6807C22.6597 50.4407 22.533 50.1107 22.533 49.6907V49.2707C22.533 48.8574 22.673 48.5207 22.953 48.2607C23.2397 47.994 23.6697 47.8607 24.243 47.8607H25.913V47.3007C25.913 47.094 25.8764 46.9207 25.803 46.7807C25.7364 46.634 25.6097 46.524 25.423 46.4507C25.2364 46.3774 24.9597 46.3407 24.593 46.3407H22.953V45.7507C23.193 45.6974 23.473 45.6507 23.793 45.6107C24.1197 45.5707 24.4997 45.5474 24.933 45.5407C25.373 45.5407 25.7397 45.5974 26.033 45.7107C26.333 45.8174 26.5564 45.9974 26.703 46.2507C26.8497 46.4974 26.923 46.8274 26.923 47.2407V50.9707H26.133L25.963 50.3807C25.923 50.4074 25.8397 50.4574 25.713 50.5307C25.5864 50.5974 25.423 50.6707 25.223 50.7507C25.0297 50.8307 24.8164 50.8974 24.583 50.9507C24.3564 51.004 24.1264 51.0307 23.893 51.0307ZM24.353 50.3007C24.453 50.3074 24.5697 50.2974 24.703 50.2707C24.843 50.244 24.9797 50.214 25.113 50.1807C25.253 50.1407 25.3797 50.1007 25.493 50.0607C25.613 50.0207 25.7097 49.9874 25.783 49.9607C25.863 49.9274 25.9064 49.9074 25.913 49.9007V48.3607L24.513 48.4207C24.1664 48.4407 23.9164 48.5274 23.763 48.6807C23.6164 48.834 23.543 49.034 23.543 49.2807V49.5207C23.543 49.714 23.583 49.8707 23.663 49.9907C23.743 50.104 23.843 50.184 23.963 50.2307C24.0897 50.2774 24.2197 50.3007 24.353 50.3007ZM28.282 50.9707V45.6207H29.082L29.282 46.2007C29.522 46.0274 29.8054 45.874 30.132 45.7407C30.4654 45.6007 30.8087 45.5307 31.162 45.5307C31.562 45.5307 31.882 45.6174 32.122 45.7907C32.3687 45.9574 32.5454 46.1807 32.652 46.4607C32.7587 46.7407 32.812 47.044 32.812 47.3707V50.9707H31.812V47.4907C31.812 47.2774 31.7687 47.094 31.682 46.9407C31.602 46.7807 31.4887 46.6574 31.342 46.5707C31.1954 46.484 31.0154 46.4407 30.802 46.4407C30.602 46.4407 30.4154 46.4607 30.242 46.5007C30.0754 46.5407 29.9154 46.5974 29.762 46.6707C29.6087 46.7374 29.4487 46.8207 29.282 46.9207V50.9707H28.282ZM35.5105 53.4307C35.1705 53.4307 34.8671 53.3807 34.6005 53.2807C34.3405 53.1874 34.1338 53.0407 33.9805 52.8407C33.8271 52.6474 33.7505 52.4074 33.7505 52.1207V51.9007C33.7505 51.6007 33.8338 51.3474 34.0005 51.1407C34.1738 50.9407 34.3905 50.7874 34.6505 50.6807C34.9105 50.574 35.1805 50.5207 35.4605 50.5207L35.7305 50.8907C35.5505 50.8907 35.3805 50.9174 35.2205 50.9707C35.0671 51.0307 34.9405 51.1207 34.8405 51.2407C34.7471 51.3674 34.7005 51.5274 34.7005 51.7207V51.9107C34.7005 52.1907 34.7938 52.394 34.9805 52.5207C35.1738 52.6474 35.4371 52.7107 35.7705 52.7107H36.9405C37.2938 52.7107 37.5738 52.6407 37.7805 52.5007C37.9871 52.3674 38.0905 52.1574 38.0905 51.8707V51.6807C38.0905 51.5207 38.0538 51.3807 37.9805 51.2607C37.9138 51.1407 37.8038 51.0474 37.6505 50.9807C37.4971 50.9207 37.2871 50.8907 37.0205 50.8907H35.5405C35.0671 50.8907 34.7071 50.794 34.4605 50.6007C34.2138 50.4074 34.0905 50.164 34.0905 49.8707C34.0905 49.604 34.1671 49.3907 34.3205 49.2307C34.4805 49.064 34.7038 48.9507 34.9905 48.8907C34.7505 48.784 34.5605 48.6474 34.4205 48.4807C34.2871 48.314 34.1938 48.134 34.1405 47.9407C34.0871 47.7407 34.0605 47.5407 34.0605 47.3407C34.0605 46.934 34.1438 46.604 34.3105 46.3507C34.4771 46.0974 34.7171 45.9107 35.0305 45.7907C35.3505 45.6707 35.7305 45.6107 36.1705 45.6107H39.0505V46.1807L37.9605 46.2907C38.0405 46.3507 38.1271 46.4307 38.2205 46.5307C38.3138 46.624 38.3938 46.754 38.4605 46.9207C38.5271 47.0874 38.5605 47.3074 38.5605 47.5807C38.5605 47.8674 38.4971 48.134 38.3705 48.3807C38.2505 48.6274 38.0505 48.8274 37.7705 48.9807C37.4971 49.134 37.1238 49.2107 36.6505 49.2107H35.7705C35.5171 49.2107 35.3171 49.2474 35.1705 49.3207C35.0238 49.394 34.9505 49.524 34.9505 49.7107C34.9505 49.864 35.0071 49.9707 35.1205 50.0307C35.2338 50.0907 35.3538 50.1207 35.4805 50.1207H37.1705C37.5771 50.1207 37.9171 50.174 38.1905 50.2807C38.4705 50.3874 38.6805 50.5507 38.8205 50.7707C38.9605 50.9907 39.0305 51.2774 39.0305 51.6307V51.8207C39.0305 52.3274 38.8638 52.7207 38.5305 53.0007C38.2038 53.2874 37.7071 53.4307 37.0405 53.4307H35.5105ZM35.9505 48.4407H36.5405C36.8405 48.4407 37.0671 48.3974 37.2205 48.3107C37.3805 48.2174 37.4905 48.0974 37.5505 47.9507C37.6105 47.804 37.6405 47.6407 37.6405 47.4607C37.6405 47.194 37.5971 46.984 37.5105 46.8307C37.4238 46.6707 37.3038 46.5574 37.1505 46.4907C37.0038 46.4174 36.8238 46.3807 36.6105 46.3807H36.0505C35.7105 46.3807 35.4438 46.4574 35.2505 46.6107C35.0638 46.764 34.9705 47.0274 34.9705 47.4007C34.9705 47.7674 35.0571 48.034 35.2305 48.2007C35.4038 48.3607 35.6438 48.4407 35.9505 48.4407ZM42.648 50.9707V43.6007H45.388C46.048 43.6007 46.538 43.7607 46.858 44.0807C47.1846 44.4007 47.348 44.874 47.348 45.5007C47.348 45.8074 47.3013 46.074 47.208 46.3007C47.1213 46.5207 46.998 46.704 46.838 46.8507C46.6846 46.9907 46.5113 47.0874 46.318 47.1407C46.458 47.1807 46.6013 47.2407 46.748 47.3207C46.9013 47.4007 47.0413 47.514 47.168 47.6607C47.3013 47.8007 47.408 47.9774 47.488 48.1907C47.568 48.3974 47.608 48.644 47.608 48.9307C47.608 49.444 47.5213 49.8507 47.348 50.1507C47.1813 50.444 46.9413 50.654 46.628 50.7807C46.3146 50.9074 45.938 50.9707 45.498 50.9707H42.648ZM43.658 50.0707H45.468C45.708 50.0707 45.9146 50.0307 46.088 49.9507C46.2613 49.8707 46.398 49.7374 46.498 49.5507C46.598 49.364 46.648 49.1007 46.648 48.7607C46.648 48.514 46.5946 48.304 46.488 48.1307C46.3813 47.9507 46.238 47.814 46.058 47.7207C45.8846 47.6274 45.688 47.5807 45.468 47.5807H43.658V50.0707ZM43.658 46.8007H45.418C45.7046 46.8007 45.9346 46.6974 46.108 46.4907C46.288 46.2774 46.3813 46.0007 46.388 45.6607C46.4013 45.2274 46.3113 44.9274 46.118 44.7607C45.9246 44.5874 45.678 44.5007 45.378 44.5007H43.658V46.8007ZM49.8013 51.0307C49.4079 51.0307 49.0813 50.914 48.8213 50.6807C48.5679 50.4407 48.4413 50.1107 48.4413 49.6907V49.2707C48.4413 48.8574 48.5813 48.5207 48.8613 48.2607C49.1479 47.994 49.5779 47.8607 50.1513 47.8607H51.8213V47.3007C51.8213 47.094 51.7846 46.9207 51.7113 46.7807C51.6446 46.634 51.5179 46.524 51.3313 46.4507C51.1446 46.3774 50.8679 46.3407 50.5013 46.3407H48.8613V45.7507C49.1013 45.6974 49.3813 45.6507 49.7013 45.6107C50.0279 45.5707 50.4079 45.5474 50.8413 45.5407C51.2813 45.5407 51.6479 45.5974 51.9413 45.7107C52.2413 45.8174 52.4646 45.9974 52.6113 46.2507C52.7579 46.4974 52.8313 46.8274 52.8313 47.2407V50.9707H52.0413L51.8713 50.3807C51.8313 50.4074 51.7479 50.4574 51.6213 50.5307C51.4946 50.5974 51.3313 50.6707 51.1313 50.7507C50.9379 50.8307 50.7246 50.8974 50.4913 50.9507C50.2646 51.004 50.0346 51.0307 49.8013 51.0307ZM50.2613 50.3007C50.3613 50.3074 50.4779 50.2974 50.6113 50.2707C50.7513 50.244 50.8879 50.214 51.0213 50.1807C51.1613 50.1407 51.2879 50.1007 51.4013 50.0607C51.5213 50.0207 51.6179 49.9874 51.6913 49.9607C51.7713 49.9274 51.8146 49.9074 51.8213 49.9007V48.3607L50.4213 48.4207C50.0746 48.4407 49.8246 48.5274 49.6713 48.6807C49.5246 48.834 49.4513 49.034 49.4513 49.2807V49.5207C49.4513 49.714 49.4913 49.8707 49.5713 49.9907C49.6513 50.104 49.7513 50.184 49.8713 50.2307C49.9979 50.2774 50.1279 50.3007 50.2613 50.3007ZM55.9302 51.0307C55.4969 51.0307 55.1369 50.9374 54.8502 50.7507C54.5702 50.564 54.3602 50.274 54.2202 49.8807C54.0802 49.4807 54.0102 48.9674 54.0102 48.3407C54.0102 47.6807 54.0736 47.1474 54.2002 46.7407C54.3336 46.3274 54.5469 46.0274 54.8402 45.8407C55.1336 45.6474 55.5302 45.5507 56.0302 45.5507C56.3102 45.5507 56.5869 45.5807 56.8602 45.6407C57.1402 45.7007 57.3836 45.7674 57.5902 45.8407V43.3407H58.5902V50.9707H57.7702L57.5902 50.4407C57.4836 50.534 57.3369 50.6274 57.1502 50.7207C56.9636 50.8074 56.7636 50.8807 56.5502 50.9407C56.3369 51.0007 56.1302 51.0307 55.9302 51.0307ZM56.2502 50.2107C56.5236 50.2107 56.7702 50.1674 56.9902 50.0807C57.2169 49.994 57.4169 49.904 57.5902 49.8107V46.5607C57.3836 46.5007 57.1802 46.4474 56.9802 46.4007C56.7869 46.3474 56.5702 46.3207 56.3302 46.3207C56.0169 46.3207 55.7636 46.3774 55.5702 46.4907C55.3769 46.604 55.2369 46.804 55.1502 47.0907C55.0636 47.3774 55.0202 47.7774 55.0202 48.2907C55.0202 48.764 55.0602 49.144 55.1402 49.4307C55.2202 49.7107 55.3502 49.9107 55.5302 50.0307C55.7169 50.1507 55.9569 50.2107 56.2502 50.2107ZM61.0317 51.0307C60.6384 51.0307 60.3117 50.914 60.0517 50.6807C59.7984 50.4407 59.6717 50.1107 59.6717 49.6907V49.2707C59.6717 48.8574 59.8117 48.5207 60.0917 48.2607C60.3784 47.994 60.8084 47.8607 61.3817 47.8607H63.0517V47.3007C63.0517 47.094 63.0151 46.9207 62.9417 46.7807C62.8751 46.634 62.7484 46.524 62.5617 46.4507C62.3751 46.3774 62.0984 46.3407 61.7317 46.3407H60.0917V45.7507C60.3317 45.6974 60.6117 45.6507 60.9317 45.6107C61.2584 45.5707 61.6384 45.5474 62.0717 45.5407C62.5117 45.5407 62.8784 45.5974 63.1717 45.7107C63.4717 45.8174 63.6951 45.9974 63.8417 46.2507C63.9884 46.4974 64.0617 46.8274 64.0617 47.2407V50.9707H63.2717L63.1017 50.3807C63.0617 50.4074 62.9784 50.4574 62.8517 50.5307C62.7251 50.5974 62.5617 50.6707 62.3617 50.7507C62.1684 50.8307 61.9551 50.8974 61.7217 50.9507C61.4951 51.004 61.2651 51.0307 61.0317 51.0307ZM61.4917 50.3007C61.5917 50.3074 61.7084 50.2974 61.8417 50.2707C61.9817 50.244 62.1184 50.214 62.2517 50.1807C62.3917 50.1407 62.5184 50.1007 62.6317 50.0607C62.7517 50.0207 62.8484 49.9874 62.9217 49.9607C63.0017 49.9274 63.0451 49.9074 63.0517 49.9007V48.3607L61.6517 48.4207C61.3051 48.4407 61.0551 48.5274 60.9017 48.6807C60.7551 48.834 60.6817 49.034 60.6817 49.2807V49.5207C60.6817 49.714 60.7217 49.8707 60.8017 49.9907C60.8817 50.104 60.9817 50.184 61.1017 50.2307C61.2284 50.2774 61.3584 50.3007 61.4917 50.3007ZM65.4207 50.9707V45.6207H66.2207L66.4207 46.2007C66.6607 46.0274 66.944 45.874 67.2707 45.7407C67.604 45.6007 67.9474 45.5307 68.3007 45.5307C68.7007 45.5307 69.0207 45.6174 69.2607 45.7907C69.5074 45.9574 69.684 46.1807 69.7907 46.4607C69.8974 46.7407 69.9507 47.044 69.9507 47.3707V50.9707H68.9507V47.4907C68.9507 47.2774 68.9074 47.094 68.8207 46.9407C68.7407 46.7807 68.6274 46.6574 68.4807 46.5707C68.334 46.484 68.154 46.4407 67.9407 46.4407C67.7407 46.4407 67.554 46.4607 67.3807 46.5007C67.214 46.5407 67.054 46.5974 66.9007 46.6707C66.7474 46.7374 66.5874 46.8207 66.4207 46.9207V50.9707H65.4207Z" fill="white"/>
<path d="M4.55953 90.3223C4.2462 90.3223 3.96953 90.2756 3.72953 90.1823C3.4962 90.0823 3.3162 89.9189 3.18953 89.6923C3.06286 89.4589 2.99953 89.1489 2.99953 88.7623V82.9523H4.00953V88.6123C4.00953 88.8256 4.0462 88.9923 4.11953 89.1123C4.19286 89.2256 4.28953 89.3023 4.40953 89.3423C4.52953 89.3823 4.65953 89.4023 4.79953 89.4023H7.34953V90.3223H4.55953ZM10.4116 90.3823C9.8449 90.3823 9.39156 90.2989 9.05156 90.1323C8.71823 89.9656 8.47823 89.6856 8.33156 89.2923C8.19156 88.8923 8.12156 88.3423 8.12156 87.6423C8.12156 86.9289 8.19156 86.3756 8.33156 85.9823C8.47823 85.5823 8.71823 85.3023 9.05156 85.1423C9.3849 84.9823 9.8349 84.9023 10.4016 84.9023C10.8949 84.9023 11.2916 84.9556 11.5916 85.0623C11.8982 85.1623 12.1216 85.3456 12.2616 85.6123C12.4082 85.8723 12.4816 86.2356 12.4816 86.7023C12.4816 87.0289 12.4149 87.2889 12.2816 87.4823C12.1549 87.6756 11.9716 87.8156 11.7316 87.9023C11.4982 87.9889 11.2182 88.0323 10.8916 88.0323H9.12156C9.12823 88.4189 9.17156 88.7289 9.25156 88.9623C9.33823 89.1889 9.48823 89.3556 9.70156 89.4623C9.92156 89.5623 10.2416 89.6123 10.6616 89.6123H12.3316V90.2123C12.0449 90.2523 11.7516 90.2889 11.4516 90.3223C11.1516 90.3623 10.8049 90.3823 10.4116 90.3823ZM9.11156 87.4023H10.8016C11.0682 87.4023 11.2649 87.3523 11.3916 87.2523C11.5182 87.1523 11.5816 86.9689 11.5816 86.7023C11.5816 86.4356 11.5416 86.2256 11.4616 86.0723C11.3882 85.9189 11.2649 85.8089 11.0916 85.7423C10.9182 85.6756 10.6882 85.6423 10.4016 85.6423C10.0749 85.6423 9.8149 85.6923 9.62156 85.7923C9.4349 85.8923 9.30156 86.0689 9.22156 86.3223C9.14823 86.5756 9.11156 86.9356 9.11156 87.4023ZM16.422 90.3823C16.1753 90.3823 15.9453 90.3523 15.732 90.2923C15.5253 90.2323 15.3353 90.1589 15.162 90.0723C14.9953 89.9789 14.842 89.8856 14.702 89.7923L14.522 90.3223H13.702V82.6923H14.702V85.4223C14.9486 85.2889 15.222 85.1689 15.522 85.0623C15.8286 84.9556 16.112 84.9023 16.372 84.9023C16.812 84.9023 17.172 84.9956 17.452 85.1823C17.732 85.3623 17.9386 85.6556 18.072 86.0623C18.212 86.4689 18.282 87.0123 18.282 87.6923C18.282 88.2589 18.2186 88.7456 18.092 89.1523C17.9653 89.5523 17.7653 89.8589 17.492 90.0723C17.2186 90.2789 16.862 90.3823 16.422 90.3823ZM16.072 89.5523C16.332 89.5523 16.5486 89.4889 16.722 89.3623C16.902 89.2289 17.0386 89.0223 17.132 88.7423C17.232 88.4556 17.282 88.0889 17.282 87.6423C17.282 87.0956 17.2286 86.6856 17.122 86.4123C17.0153 86.1389 16.872 85.9556 16.692 85.8623C16.512 85.7689 16.3053 85.7223 16.072 85.7223C15.8053 85.7223 15.562 85.7623 15.342 85.8423C15.1286 85.9156 14.9153 86.0089 14.702 86.1223V89.1723C14.882 89.2656 15.0853 89.3523 15.312 89.4323C15.5386 89.5123 15.792 89.5523 16.072 89.5523ZM20.5727 90.3823C20.1794 90.3823 19.8527 90.2656 19.5927 90.0323C19.3394 89.7923 19.2127 89.4623 19.2127 89.0423V88.6223C19.2127 88.2089 19.3527 87.8723 19.6327 87.6123C19.9194 87.3456 20.3494 87.2123 20.9227 87.2123H22.5927V86.6523C22.5927 86.4456 22.5561 86.2723 22.4827 86.1323C22.4161 85.9856 22.2894 85.8756 22.1027 85.8023C21.9161 85.7289 21.6394 85.6923 21.2727 85.6923H19.6327V85.1023C19.8727 85.0489 20.1527 85.0023 20.4727 84.9623C20.7994 84.9223 21.1794 84.8989 21.6127 84.8923C22.0527 84.8923 22.4194 84.9489 22.7127 85.0623C23.0127 85.1689 23.2361 85.3489 23.3827 85.6023C23.5294 85.8489 23.6027 86.1789 23.6027 86.5923V90.3223H22.8127L22.6427 89.7323C22.6027 89.7589 22.5194 89.8089 22.3927 89.8823C22.2661 89.9489 22.1027 90.0223 21.9027 90.1023C21.7094 90.1823 21.4961 90.2489 21.2627 90.3023C21.0361 90.3556 20.8061 90.3823 20.5727 90.3823ZM21.0327 89.6523C21.1327 89.6589 21.2494 89.6489 21.3827 89.6223C21.5227 89.5956 21.6594 89.5656 21.7927 89.5323C21.9327 89.4923 22.0594 89.4523 22.1727 89.4123C22.2927 89.3723 22.3894 89.3389 22.4627 89.3123C22.5427 89.2789 22.5861 89.2589 22.5927 89.2523V87.7123L21.1927 87.7723C20.8461 87.7923 20.5961 87.8789 20.4427 88.0323C20.2961 88.1856 20.2227 88.3856 20.2227 88.6323V88.8723C20.2227 89.0656 20.2627 89.2223 20.3427 89.3423C20.4227 89.4556 20.5227 89.5356 20.6427 89.5823C20.7694 89.6289 20.8994 89.6523 21.0327 89.6523ZM24.9617 90.3223V84.9723H25.7317L25.9617 85.8723C26.1884 85.5989 26.4417 85.3689 26.7217 85.1823C27.0017 84.9956 27.3284 84.9023 27.7017 84.9023C27.7884 84.9023 27.8717 84.9089 27.9517 84.9223C28.0317 84.9289 28.1084 84.9423 28.1817 84.9623V85.9923C28.0884 85.9789 27.9917 85.9689 27.8917 85.9623C27.7917 85.9489 27.6884 85.9423 27.5817 85.9423C27.3551 85.9423 27.1517 85.9689 26.9717 86.0223C26.7917 86.0756 26.6184 86.1589 26.4517 86.2723C26.2917 86.3789 26.1284 86.5123 25.9617 86.6723V90.3223H24.9617ZM31.8081 90.3223V82.9523H34.5481C35.2081 82.9523 35.6981 83.1123 36.0181 83.4323C36.3448 83.7523 36.5081 84.2256 36.5081 84.8523C36.5081 85.1589 36.4615 85.4256 36.3681 85.6523C36.2815 85.8723 36.1581 86.0556 35.9981 86.2023C35.8448 86.3423 35.6715 86.4389 35.4781 86.4923C35.6181 86.5323 35.7615 86.5923 35.9081 86.6723C36.0615 86.7523 36.2015 86.8656 36.3281 87.0123C36.4615 87.1523 36.5681 87.3289 36.6481 87.5423C36.7281 87.7489 36.7681 87.9956 36.7681 88.2823C36.7681 88.7956 36.6815 89.2023 36.5081 89.5023C36.3415 89.7956 36.1015 90.0056 35.7881 90.1323C35.4748 90.2589 35.0981 90.3223 34.6581 90.3223H31.8081ZM32.8181 89.4223H34.6281C34.8681 89.4223 35.0748 89.3823 35.2481 89.3023C35.4215 89.2223 35.5581 89.0889 35.6581 88.9023C35.7581 88.7156 35.8081 88.4523 35.8081 88.1123C35.8081 87.8656 35.7548 87.6556 35.6481 87.4823C35.5415 87.3023 35.3981 87.1656 35.2181 87.0723C35.0448 86.9789 34.8481 86.9323 34.6281 86.9323H32.8181V89.4223ZM32.8181 86.1523H34.5781C34.8648 86.1523 35.0948 86.0489 35.2681 85.8423C35.4481 85.6289 35.5415 85.3523 35.5481 85.0123C35.5615 84.5789 35.4715 84.2789 35.2781 84.1123C35.0848 83.9389 34.8381 83.8523 34.5381 83.8523H32.8181V86.1523ZM38.9614 90.3823C38.5681 90.3823 38.2414 90.2656 37.9814 90.0323C37.7281 89.7923 37.6014 89.4623 37.6014 89.0423V88.6223C37.6014 88.2089 37.7414 87.8723 38.0214 87.6123C38.3081 87.3456 38.7381 87.2123 39.3114 87.2123H40.9814V86.6523C40.9814 86.4456 40.9447 86.2723 40.8714 86.1323C40.8047 85.9856 40.6781 85.8756 40.4914 85.8023C40.3047 85.7289 40.0281 85.6923 39.6614 85.6923H38.0214V85.1023C38.2614 85.0489 38.5414 85.0023 38.8614 84.9623C39.1881 84.9223 39.5681 84.8989 40.0014 84.8923C40.4414 84.8923 40.8081 84.9489 41.1014 85.0623C41.4014 85.1689 41.6247 85.3489 41.7714 85.6023C41.9181 85.8489 41.9914 86.1789 41.9914 86.5923V90.3223H41.2014L41.0314 89.7323C40.9914 89.7589 40.9081 89.8089 40.7814 89.8823C40.6547 89.9489 40.4914 90.0223 40.2914 90.1023C40.0981 90.1823 39.8847 90.2489 39.6514 90.3023C39.4247 90.3556 39.1947 90.3823 38.9614 90.3823ZM39.4214 89.6523C39.5214 89.6589 39.6381 89.6489 39.7714 89.6223C39.9114 89.5956 40.0481 89.5656 40.1814 89.5323C40.3214 89.4923 40.4481 89.4523 40.5614 89.4123C40.6814 89.3723 40.7781 89.3389 40.8514 89.3123C40.9314 89.2789 40.9747 89.2589 40.9814 89.2523V87.7123L39.5814 87.7723C39.2347 87.7923 38.9847 87.8789 38.8314 88.0323C38.6847 88.1856 38.6114 88.3856 38.6114 88.6323V88.8723C38.6114 89.0656 38.6514 89.2223 38.7314 89.3423C38.8114 89.4556 38.9114 89.5356 39.0314 89.5823C39.1581 89.6289 39.2881 89.6523 39.4214 89.6523ZM45.0904 90.3823C44.6571 90.3823 44.2971 90.2889 44.0104 90.1023C43.7304 89.9156 43.5204 89.6256 43.3804 89.2323C43.2404 88.8323 43.1704 88.3189 43.1704 87.6923C43.1704 87.0323 43.2337 86.4989 43.3604 86.0923C43.4937 85.6789 43.7071 85.3789 44.0004 85.1923C44.2937 84.9989 44.6904 84.9023 45.1904 84.9023C45.4704 84.9023 45.7471 84.9323 46.0204 84.9923C46.3004 85.0523 46.5437 85.1189 46.7504 85.1923V82.6923H47.7504V90.3223H46.9304L46.7504 89.7923C46.6437 89.8856 46.4971 89.9789 46.3104 90.0723C46.1237 90.1589 45.9237 90.2323 45.7104 90.2923C45.4971 90.3523 45.2904 90.3823 45.0904 90.3823ZM45.4104 89.5623C45.6837 89.5623 45.9304 89.5189 46.1504 89.4323C46.3771 89.3456 46.5771 89.2556 46.7504 89.1623V85.9123C46.5437 85.8523 46.3404 85.7989 46.1404 85.7523C45.9471 85.6989 45.7304 85.6723 45.4904 85.6723C45.1771 85.6723 44.9237 85.7289 44.7304 85.8423C44.5371 85.9556 44.3971 86.1556 44.3104 86.4423C44.2237 86.7289 44.1804 87.1289 44.1804 87.6423C44.1804 88.1156 44.2204 88.4956 44.3004 88.7823C44.3804 89.0623 44.5104 89.2623 44.6904 89.3823C44.8771 89.5023 45.1171 89.5623 45.4104 89.5623ZM50.1919 90.3823C49.7985 90.3823 49.4719 90.2656 49.2119 90.0323C48.9585 89.7923 48.8319 89.4623 48.8319 89.0423V88.6223C48.8319 88.2089 48.9719 87.8723 49.2519 87.6123C49.5385 87.3456 49.9685 87.2123 50.5419 87.2123H52.2119V86.6523C52.2119 86.4456 52.1752 86.2723 52.1019 86.1323C52.0352 85.9856 51.9085 85.8756 51.7219 85.8023C51.5352 85.7289 51.2585 85.6923 50.8919 85.6923H49.2519V85.1023C49.4919 85.0489 49.7719 85.0023 50.0919 84.9623C50.4185 84.9223 50.7985 84.8989 51.2319 84.8923C51.6719 84.8923 52.0385 84.9489 52.3319 85.0623C52.6319 85.1689 52.8552 85.3489 53.0019 85.6023C53.1485 85.8489 53.2219 86.1789 53.2219 86.5923V90.3223H52.4319L52.2619 89.7323C52.2219 89.7589 52.1385 89.8089 52.0119 89.8823C51.8852 89.9489 51.7219 90.0223 51.5219 90.1023C51.3285 90.1823 51.1152 90.2489 50.8819 90.3023C50.6552 90.3556 50.4252 90.3823 50.1919 90.3823ZM50.6519 89.6523C50.7519 89.6589 50.8685 89.6489 51.0019 89.6223C51.1419 89.5956 51.2785 89.5656 51.4119 89.5323C51.5519 89.4923 51.6785 89.4523 51.7919 89.4123C51.9119 89.3723 52.0085 89.3389 52.0819 89.3123C52.1619 89.2789 52.2052 89.2589 52.2119 89.2523V87.7123L50.8119 87.7723C50.4652 87.7923 50.2152 87.8789 50.0619 88.0323C49.9152 88.1856 49.8419 88.3856 49.8419 88.6323V88.8723C49.8419 89.0656 49.8819 89.2223 49.9619 89.3423C50.0419 89.4556 50.1419 89.5356 50.2619 89.5823C50.3885 89.6289 50.5185 89.6523 50.6519 89.6523ZM54.5809 90.3223V84.9723H55.3809L55.5809 85.5523C55.8209 85.3789 56.1042 85.2256 56.4309 85.0923C56.7642 84.9523 57.1075 84.8823 57.4609 84.8823C57.8609 84.8823 58.1809 84.9689 58.4209 85.1423C58.6675 85.3089 58.8442 85.5323 58.9509 85.8123C59.0575 86.0923 59.1109 86.3956 59.1109 86.7223V90.3223H58.1109V86.8423C58.1109 86.6289 58.0675 86.4456 57.9809 86.2923C57.9009 86.1323 57.7875 86.0089 57.6409 85.9223C57.4942 85.8356 57.3142 85.7923 57.1009 85.7923C56.9009 85.7923 56.7142 85.8123 56.5409 85.8523C56.3742 85.8923 56.2142 85.9489 56.0609 86.0223C55.9075 86.0889 55.7475 86.1723 55.5809 86.2723V90.3223H54.5809Z" fill="white"/>
<line x1="0.714844" y1="29.5337" x2="342.715" y2="29.5337" stroke="white"/>
<line x1="0.714844" y1="66.6465" x2="342.715" y2="66.6465" stroke="white"/>
<line x1="83.293" y1="0.963867" x2="83.293" y2="115.534" stroke="white"/>
<line x1="124.336" y1="0.963867" x2="124.336" y2="115.534" stroke="white"/>
<line x1="165.375" y1="0.963867" x2="165.375" y2="115.534" stroke="white"/>
<line x1="206.414" y1="0.963867" x2="206.414" y2="115.534" stroke="white"/>
<line x1="247.453" y1="0.963867" x2="247.453" y2="115.534" stroke="white"/>
<line x1="288.496" y1="0.963867" x2="288.496" y2="115.534" stroke="white"/>
<line x1="329.535" y1="0.963867" x2="329.535" y2="115.534" stroke="white"/>
<path d="M99.3148 52.3372C98.9554 52.3372 98.6328 52.2785 98.3468 52.1612C98.0608 52.0365 97.8188 51.8275 97.6208 51.5342C97.4228 51.2335 97.2724 50.8192 97.1698 50.2912C97.0671 49.7632 97.0158 49.0959 97.0158 48.2892C97.0158 47.5339 97.0818 46.8959 97.2138 46.3752C97.3458 45.8472 97.5364 45.4182 97.7858 45.0882C98.0424 44.7509 98.3504 44.5089 98.7098 44.3622C99.0691 44.2082 99.4798 44.1312 99.9418 44.1312C100.264 44.1312 100.613 44.1459 100.987 44.1752C101.361 44.1972 101.691 44.2265 101.977 44.2632V45.1212H100.008C99.3991 45.1212 98.9334 45.3412 98.6108 45.7812C98.2881 46.2212 98.1268 46.8849 98.1268 47.7722C98.3321 47.7355 98.5558 47.7062 98.7978 47.6842C99.0398 47.6622 99.2854 47.6475 99.5348 47.6402C99.7841 47.6329 100.019 47.6292 100.239 47.6292C100.737 47.6292 101.152 47.6915 101.482 47.8162C101.812 47.9409 102.057 48.1315 102.219 48.3882C102.38 48.6449 102.461 48.9749 102.461 49.3782V50.5222C102.461 50.9695 102.376 51.3252 102.208 51.5892C102.039 51.8532 101.808 52.0439 101.515 52.1612C101.229 52.2785 100.906 52.3372 100.547 52.3372H99.3148ZM99.5128 51.3472H100.316C100.514 51.3472 100.69 51.3179 100.844 51.2592C101.005 51.2005 101.13 51.0979 101.218 50.9512C101.313 50.8045 101.361 50.5992 101.361 50.3352V49.5762C101.361 49.2975 101.306 49.0885 101.196 48.9492C101.093 48.8025 100.935 48.7035 100.723 48.6522C100.517 48.6009 100.261 48.5752 99.9528 48.5752H98.1268C98.1268 49.1252 98.1561 49.5835 98.2148 49.9502C98.2734 50.3095 98.3614 50.5919 98.4788 50.7972C98.5961 50.9952 98.7391 51.1382 98.9078 51.2262C99.0838 51.3069 99.2854 51.3472 99.5128 51.3472ZM107.347 52.2932V50.3462H103.607L103.376 49.7742L106.302 44.1972H107.435L104.674 49.4002H107.347V47.4092L107.578 46.6062H108.458V49.4002H109.481V50.1592L108.458 50.3462V52.2932H107.347Z" fill="white"/>
<path d="M139.616 52.3372C139.256 52.3372 138.934 52.2785 138.648 52.1612C138.362 52.0365 138.12 51.8275 137.922 51.5342C137.724 51.2335 137.573 50.8192 137.471 50.2912C137.368 49.7632 137.317 49.0959 137.317 48.2892C137.317 47.5339 137.383 46.8959 137.515 46.3752C137.647 45.8472 137.837 45.4182 138.087 45.0882C138.343 44.7509 138.651 44.5089 139.011 44.3622C139.37 44.2082 139.781 44.1312 140.243 44.1312C140.565 44.1312 140.914 44.1459 141.288 44.1752C141.662 44.1972 141.992 44.2265 142.278 44.2632V45.1212H140.309C139.7 45.1212 139.234 45.3412 138.912 45.7812C138.589 46.2212 138.428 46.8849 138.428 47.7722C138.633 47.7355 138.857 47.7062 139.099 47.6842C139.341 47.6622 139.586 47.6475 139.836 47.6402C140.085 47.6329 140.32 47.6292 140.54 47.6292C141.038 47.6292 141.453 47.6915 141.783 47.8162C142.113 47.9409 142.358 48.1315 142.52 48.3882C142.681 48.6449 142.762 48.9749 142.762 49.3782V50.5222C142.762 50.9695 142.677 51.3252 142.509 51.5892C142.34 51.8532 142.109 52.0439 141.816 52.1612C141.53 52.2785 141.207 52.3372 140.848 52.3372H139.616ZM139.814 51.3472H140.617C140.815 51.3472 140.991 51.3179 141.145 51.2592C141.306 51.2005 141.431 51.0979 141.519 50.9512C141.614 50.8045 141.662 50.5992 141.662 50.3352V49.5762C141.662 49.2975 141.607 49.0885 141.497 48.9492C141.394 48.8025 141.236 48.7035 141.024 48.6522C140.818 48.6009 140.562 48.5752 140.254 48.5752H138.428C138.428 49.1252 138.457 49.5835 138.516 49.9502C138.574 50.3095 138.662 50.5919 138.78 50.7972C138.897 50.9952 139.04 51.1382 139.209 51.2262C139.385 51.3069 139.586 51.3472 139.814 51.3472ZM146.415 52.3372C146.056 52.3372 145.733 52.2785 145.447 52.1612C145.161 52.0365 144.919 51.8275 144.721 51.5342C144.523 51.2335 144.373 50.8192 144.27 50.2912C144.168 49.7632 144.116 49.0959 144.116 48.2892C144.116 47.5339 144.182 46.8959 144.314 46.3752C144.446 45.8472 144.637 45.4182 144.886 45.0882C145.143 44.7509 145.451 44.5089 145.81 44.3622C146.17 44.2082 146.58 44.1312 147.042 44.1312C147.365 44.1312 147.713 44.1459 148.087 44.1752C148.461 44.1972 148.791 44.2265 149.077 44.2632V45.1212H147.108C146.5 45.1212 146.034 45.3412 145.711 45.7812C145.389 46.2212 145.227 46.8849 145.227 47.7722C145.433 47.7355 145.656 47.7062 145.898 47.6842C146.14 47.6622 146.386 47.6475 146.635 47.6402C146.885 47.6329 147.119 47.6292 147.339 47.6292C147.838 47.6292 148.252 47.6915 148.582 47.8162C148.912 47.9409 149.158 48.1315 149.319 48.3882C149.481 48.6449 149.561 48.9749 149.561 49.3782V50.5222C149.561 50.9695 149.477 51.3252 149.308 51.5892C149.14 51.8532 148.909 52.0439 148.615 52.1612C148.329 52.2785 148.007 52.3372 147.647 52.3372H146.415ZM146.613 51.3472H147.416C147.614 51.3472 147.79 51.3179 147.944 51.2592C148.106 51.2005 148.23 51.0979 148.318 50.9512C148.414 50.8045 148.461 50.5992 148.461 50.3352V49.5762C148.461 49.2975 148.406 49.0885 148.296 48.9492C148.194 48.8025 148.036 48.7035 147.823 48.6522C147.618 48.6009 147.361 48.5752 147.053 48.5752H145.227C145.227 49.1252 145.257 49.5835 145.315 49.9502C145.374 50.3095 145.462 50.5919 145.579 50.7972C145.697 50.9952 145.84 51.1382 146.008 51.2262C146.184 51.3069 146.386 51.3472 146.613 51.3472Z" fill="white"/>
<path d="M179.916 52.3372C179.557 52.3372 179.234 52.2785 178.948 52.1612C178.662 52.0365 178.42 51.8275 178.222 51.5342C178.024 51.2335 177.874 50.8192 177.771 50.2912C177.669 49.7632 177.617 49.0959 177.617 48.2892C177.617 47.5339 177.683 46.8959 177.815 46.3752C177.947 45.8472 178.138 45.4182 178.387 45.0882C178.644 44.7509 178.952 44.5089 179.311 44.3622C179.671 44.2082 180.081 44.1312 180.543 44.1312C180.866 44.1312 181.214 44.1459 181.588 44.1752C181.962 44.1972 182.292 44.2265 182.578 44.2632V45.1212H180.609C180.001 45.1212 179.535 45.3412 179.212 45.7812C178.89 46.2212 178.728 46.8849 178.728 47.7722C178.934 47.7355 179.157 47.7062 179.399 47.6842C179.641 47.6622 179.887 47.6475 180.136 47.6402C180.386 47.6329 180.62 47.6292 180.84 47.6292C181.339 47.6292 181.753 47.6915 182.083 47.8162C182.413 47.9409 182.659 48.1315 182.82 48.3882C182.982 48.6449 183.062 48.9749 183.062 49.3782V50.5222C183.062 50.9695 182.978 51.3252 182.809 51.5892C182.641 51.8532 182.41 52.0439 182.116 52.1612C181.83 52.2785 181.508 52.3372 181.148 52.3372H179.916ZM180.114 51.3472H180.917C181.115 51.3472 181.291 51.3179 181.445 51.2592C181.607 51.2005 181.731 51.0979 181.819 50.9512C181.915 50.8045 181.962 50.5992 181.962 50.3352V49.5762C181.962 49.2975 181.907 49.0885 181.797 48.9492C181.695 48.8025 181.537 48.7035 181.324 48.6522C181.119 48.6009 180.862 48.5752 180.554 48.5752H178.728C178.728 49.1252 178.758 49.5835 178.816 49.9502C178.875 50.3095 178.963 50.5919 179.08 50.7972C179.198 50.9952 179.341 51.1382 179.509 51.2262C179.685 51.3069 179.887 51.3472 180.114 51.3472ZM186.881 52.3592C186.551 52.3592 186.203 52.3445 185.836 52.3152C185.469 52.2932 185.139 52.2639 184.846 52.2272V51.3582H186.815C187.424 51.3582 187.889 51.1419 188.212 50.7092C188.535 50.2692 188.696 49.6055 188.696 48.7182C188.498 48.7549 188.274 48.7842 188.025 48.8062C187.783 48.8282 187.537 48.8429 187.288 48.8502C187.039 48.8575 186.804 48.8612 186.584 48.8612C186.085 48.8612 185.671 48.7989 185.341 48.6742C185.011 48.5495 184.765 48.3589 184.604 48.1022C184.443 47.8455 184.362 47.5155 184.362 47.1122V45.9572C184.362 45.5172 184.446 45.1652 184.615 44.9012C184.784 44.6372 185.011 44.4465 185.297 44.3292C185.59 44.2119 185.917 44.1532 186.276 44.1532H187.508C187.867 44.1532 188.19 44.2155 188.476 44.3402C188.762 44.4575 189 44.6665 189.191 44.9672C189.389 45.2605 189.539 45.6712 189.642 46.1992C189.752 46.7272 189.807 47.3945 189.807 48.2012C189.807 48.9492 189.741 49.5872 189.609 50.1152C189.477 50.6432 189.283 51.0759 189.026 51.4132C188.777 51.7432 188.472 51.9852 188.113 52.1392C187.754 52.2859 187.343 52.3592 186.881 52.3592ZM186.859 47.9152H188.696C188.696 47.3652 188.667 46.9105 188.608 46.5512C188.549 46.1845 188.461 45.9022 188.344 45.7042C188.227 45.4989 188.08 45.3559 187.904 45.2752C187.735 45.1872 187.537 45.1432 187.31 45.1432H186.507C186.309 45.1432 186.129 45.1725 185.968 45.2312C185.814 45.2899 185.689 45.3925 185.594 45.5392C185.506 45.6859 185.462 45.8912 185.462 46.1552V46.9142C185.462 47.1929 185.517 47.4019 185.627 47.5412C185.737 47.6805 185.895 47.7795 186.1 47.8382C186.313 47.8895 186.566 47.9152 186.859 47.9152Z" fill="white"/>
<path d="M220.866 52.3042L223.572 45.3082H219.689V44.1972H224.661L224.98 44.7252L222.109 52.3042H220.866ZM228.829 52.3702C228.242 52.3702 227.692 52.3555 227.179 52.3262C226.673 52.2969 226.226 52.2565 225.837 52.2052V51.3362H228.433C228.748 51.3362 229.02 51.3069 229.247 51.2482C229.474 51.1822 229.65 51.0722 229.775 50.9182C229.907 50.7642 229.973 50.5405 229.973 50.2472V49.7742C229.973 49.5102 229.911 49.3049 229.786 49.1582C229.661 49.0042 229.5 48.8942 229.302 48.8282C229.104 48.7622 228.895 48.7255 228.675 48.7182L226.618 48.6302V47.8052L228.631 47.7172C229.005 47.6952 229.306 47.6145 229.533 47.4752C229.76 47.3359 229.874 47.0975 229.874 46.7602V46.2982C229.874 45.9389 229.749 45.6639 229.5 45.4732C229.258 45.2752 228.88 45.1762 228.367 45.1762H226.079V44.3072C226.438 44.2559 226.845 44.2119 227.3 44.1752C227.755 44.1385 228.253 44.1239 228.796 44.1312C229.28 44.1312 229.68 44.2119 229.995 44.3732C230.318 44.5272 230.56 44.7509 230.721 45.0442C230.882 45.3302 230.963 45.6712 230.963 46.0672V46.7272C230.963 46.9692 230.926 47.1782 230.853 47.3542C230.787 47.5229 230.695 47.6695 230.578 47.7942C230.468 47.9115 230.347 48.0032 230.215 48.0692C230.083 48.1352 229.958 48.1865 229.841 48.2232C229.973 48.2525 230.109 48.3112 230.248 48.3992C230.395 48.4799 230.53 48.5899 230.655 48.7292C230.787 48.8612 230.893 49.0262 230.974 49.2242C231.055 49.4222 231.095 49.6495 231.095 49.9062V50.4342C231.095 51.0649 230.893 51.5452 230.49 51.8752C230.094 52.2052 229.54 52.3702 228.829 52.3702Z" fill="white"/>
<path d="M261.968 52.3042L264.674 45.3082H260.791V44.1972H265.763L266.082 44.7252L263.211 52.3042H261.968ZM269.491 52.3372C269.131 52.3372 268.809 52.2785 268.523 52.1612C268.237 52.0365 267.995 51.8275 267.797 51.5342C267.599 51.2335 267.448 50.8192 267.346 50.2912C267.243 49.7632 267.192 49.0959 267.192 48.2892C267.192 47.5339 267.258 46.8959 267.39 46.3752C267.522 45.8472 267.712 45.4182 267.962 45.0882C268.218 44.7509 268.526 44.5089 268.886 44.3622C269.245 44.2082 269.656 44.1312 270.118 44.1312C270.44 44.1312 270.789 44.1459 271.163 44.1752C271.537 44.1972 271.867 44.2265 272.153 44.2632V45.1212H270.184C269.575 45.1212 269.109 45.3412 268.787 45.7812C268.464 46.2212 268.303 46.8849 268.303 47.7722C268.508 47.7355 268.732 47.7062 268.974 47.6842C269.216 47.6622 269.461 47.6475 269.711 47.6402C269.96 47.6329 270.195 47.6292 270.415 47.6292C270.913 47.6292 271.328 47.6915 271.658 47.8162C271.988 47.9409 272.233 48.1315 272.395 48.3882C272.556 48.6449 272.637 48.9749 272.637 49.3782V50.5222C272.637 50.9695 272.552 51.3252 272.384 51.5892C272.215 51.8532 271.984 52.0439 271.691 52.1612C271.405 52.2785 271.082 52.3372 270.723 52.3372H269.491ZM269.689 51.3472H270.492C270.69 51.3472 270.866 51.3179 271.02 51.2592C271.181 51.2005 271.306 51.0979 271.394 50.9512C271.489 50.8045 271.537 50.5992 271.537 50.3352V49.5762C271.537 49.2975 271.482 49.0885 271.372 48.9492C271.269 48.8025 271.111 48.7035 270.899 48.6522C270.693 48.6009 270.437 48.5752 270.129 48.5752H268.303C268.303 49.1252 268.332 49.5835 268.391 49.9502C268.449 50.3095 268.537 50.5919 268.655 50.7972C268.772 50.9952 268.915 51.1382 269.084 51.2262C269.26 51.3069 269.461 51.3472 269.689 51.3472Z" fill="white"/>
<path d="M303.003 52.3042L305.709 45.3082H301.826V44.1972H306.798L307.117 44.7252L304.246 52.3042H303.003ZM310.35 52.3372C310.064 52.3372 309.796 52.3115 309.547 52.2602C309.305 52.2015 309.092 52.1099 308.909 51.9852C308.725 51.8532 308.582 51.6809 308.48 51.4682C308.377 51.2555 308.326 50.9915 308.326 50.6762V49.5322C308.326 49.2829 308.373 49.0665 308.469 48.8832C308.571 48.6925 308.696 48.5385 308.843 48.4212C308.997 48.3039 309.158 48.2269 309.327 48.1902C309.099 48.0875 308.923 47.9629 308.799 47.8162C308.681 47.6622 308.601 47.4972 308.557 47.3212C308.513 47.1379 308.491 46.9509 308.491 46.7602V45.8252C308.491 45.4219 308.571 45.0955 308.733 44.8462C308.894 44.5969 309.114 44.4172 309.393 44.3072C309.671 44.1972 309.976 44.1422 310.306 44.1422H311.835C312.179 44.1422 312.48 44.1972 312.737 44.3072C312.993 44.4172 313.195 44.5969 313.342 44.8462C313.488 45.0955 313.562 45.4219 313.562 45.8252V46.7602C313.562 46.8775 313.547 47.0059 313.518 47.1452C313.488 47.2772 313.441 47.4092 313.375 47.5412C313.316 47.6659 313.235 47.7759 313.133 47.8712C313.03 47.9665 312.909 48.0325 312.77 48.0692C313.012 48.1205 313.199 48.2232 313.331 48.3772C313.47 48.5239 313.569 48.6962 313.628 48.8942C313.686 49.0849 313.716 49.2792 313.716 49.4772V50.6762C313.716 51.0942 313.635 51.4242 313.474 51.6662C313.312 51.9009 313.089 52.0732 312.803 52.1832C312.524 52.2859 312.201 52.3372 311.835 52.3372H310.35ZM310.526 51.3912H311.604C311.963 51.3912 312.22 51.3179 312.374 51.1712C312.535 51.0172 312.616 50.7935 312.616 50.5002V49.5762C312.616 49.2462 312.535 49.0079 312.374 48.8612C312.212 48.7145 311.945 48.6412 311.571 48.6412H310.526C310.416 48.6412 310.295 48.6595 310.163 48.6962C310.038 48.7255 309.921 48.7769 309.811 48.8502C309.701 48.9235 309.609 49.0225 309.536 49.1472C309.47 49.2645 309.437 49.4075 309.437 49.5762V50.5002C309.437 50.8229 309.536 51.0539 309.734 51.1932C309.939 51.3252 310.203 51.3912 310.526 51.3912ZM310.526 47.6952H311.56C311.794 47.6952 311.978 47.6512 312.11 47.5632C312.242 47.4679 312.337 47.3505 312.396 47.2112C312.454 47.0645 312.484 46.9179 312.484 46.7712V46.0782C312.484 45.6969 312.407 45.4365 312.253 45.2972C312.106 45.1579 311.89 45.0882 311.604 45.0882H310.526C310.188 45.0882 309.943 45.1615 309.789 45.3082C309.642 45.4549 309.569 45.7115 309.569 46.0782V46.7712C309.569 47.0572 309.646 47.2845 309.8 47.4532C309.954 47.6145 310.196 47.6952 310.526 47.6952Z" fill="white"/>
<path d="M100.547 89.7395V87.7925H96.8068L96.5758 87.2205L99.5018 81.6435H100.635L97.8738 86.8465H100.547V84.8555L100.778 84.0525H101.658V86.8465H102.681V87.6055L101.658 87.7925V89.7395H100.547ZM106.548 89.8055C106.071 89.8055 105.587 89.7908 105.096 89.7615C104.605 89.7395 104.157 89.7102 103.754 89.6735V88.8045H106.581C106.889 88.8045 107.149 88.7568 107.362 88.6615C107.582 88.5588 107.747 88.4158 107.857 88.2325C107.974 88.0492 108.033 87.8402 108.033 87.6055V86.8135C108.033 86.4762 107.934 86.2122 107.736 86.0215C107.545 85.8235 107.245 85.7245 106.834 85.7245H106.042C105.741 85.7245 105.503 85.7905 105.327 85.9225C105.151 86.0545 105.037 86.2598 104.986 86.5385H103.941L104.172 81.6435H108.858V82.6335H105.129L105.008 85.2955C105.103 85.1562 105.257 85.0352 105.47 84.9325C105.683 84.8298 105.947 84.7785 106.262 84.7785H107.197C107.622 84.7785 107.978 84.8592 108.264 85.0205C108.55 85.1818 108.766 85.4018 108.913 85.6805C109.06 85.9592 109.133 86.2745 109.133 86.6265V87.8255C109.133 88.2728 109.027 88.6432 108.814 88.9365C108.609 89.2298 108.312 89.4498 107.923 89.5965C107.542 89.7358 107.083 89.8055 106.548 89.8055Z" fill="white"/>
<path d="M140.848 89.7395V87.7925H137.108L136.877 87.2205L139.803 81.6435H140.936L138.175 86.8465H140.848V84.8555L141.079 84.0525H141.959V86.8465H142.982V87.6055L141.959 87.7925V89.7395H140.848ZM144.511 89.7505L147.217 82.7545H143.334V81.6435H148.306L148.625 82.1715L145.754 89.7505H144.511Z" fill="white"/>
<path d="M181.148 89.7395V87.7925H177.408L177.177 87.2205L180.103 81.6435H181.236L178.475 86.8465H181.148V84.8555L181.379 84.0525H182.259V86.8465H183.282V87.6055L182.259 87.7925V89.7395H181.148ZM186.699 89.8055C186.369 89.8055 186.02 89.7908 185.654 89.7615C185.287 89.7395 184.957 89.7102 184.664 89.6735V88.8045H186.633C187.241 88.8045 187.707 88.5882 188.03 88.1555C188.352 87.7155 188.514 87.0518 188.514 86.1645C188.316 86.2012 188.092 86.2305 187.843 86.2525C187.601 86.2745 187.355 86.2892 187.106 86.2965C186.856 86.3038 186.622 86.3075 186.402 86.3075C185.903 86.3075 185.489 86.2452 185.159 86.1205C184.829 85.9958 184.583 85.8052 184.422 85.5485C184.26 85.2918 184.18 84.9618 184.18 84.5585V83.4035C184.18 82.9635 184.264 82.6115 184.433 82.3475C184.601 82.0835 184.829 81.8928 185.115 81.7755C185.408 81.6582 185.734 81.5995 186.094 81.5995H187.326C187.685 81.5995 188.008 81.6618 188.294 81.7865C188.58 81.9038 188.818 82.1128 189.009 82.4135C189.207 82.7068 189.357 83.1175 189.46 83.6455C189.57 84.1735 189.625 84.8408 189.625 85.6475C189.625 86.3955 189.559 87.0335 189.427 87.5615C189.295 88.0895 189.1 88.5222 188.844 88.8595C188.594 89.1895 188.29 89.4315 187.931 89.5855C187.571 89.7322 187.161 89.8055 186.699 89.8055ZM186.677 85.3615H188.514C188.514 84.8115 188.484 84.3568 188.426 83.9975C188.367 83.6308 188.279 83.3485 188.162 83.1505C188.044 82.9452 187.898 82.8022 187.722 82.7215C187.553 82.6335 187.355 82.5895 187.128 82.5895H186.325C186.127 82.5895 185.947 82.6188 185.786 82.6775C185.632 82.7362 185.507 82.8388 185.412 82.9855C185.324 83.1322 185.28 83.3375 185.28 83.6015V84.3605C185.28 84.6392 185.335 84.8482 185.445 84.9875C185.555 85.1268 185.712 85.2258 185.918 85.2845C186.13 85.3358 186.383 85.3615 186.677 85.3615Z" fill="white"/>
<path d="M222.989 89.8055C222.513 89.8055 222.029 89.7908 221.537 89.7615C221.046 89.7395 220.599 89.7102 220.195 89.6735V88.8045H223.022C223.33 88.8045 223.591 88.7568 223.803 88.6615C224.023 88.5588 224.188 88.4158 224.298 88.2325C224.416 88.0492 224.474 87.8402 224.474 87.6055V86.8135C224.474 86.4762 224.375 86.2122 224.177 86.0215C223.987 85.8235 223.686 85.7245 223.275 85.7245H222.483C222.183 85.7245 221.944 85.7905 221.768 85.9225C221.592 86.0545 221.479 86.2598 221.427 86.5385H220.382L220.613 81.6435H225.299V82.6335H221.57L221.449 85.2955C221.545 85.1562 221.699 85.0352 221.911 84.9325C222.124 84.8298 222.388 84.7785 222.703 84.7785H223.638C224.064 84.7785 224.419 84.8592 224.705 85.0205C224.991 85.1818 225.208 85.4018 225.354 85.6805C225.501 85.9592 225.574 86.2745 225.574 86.6265V87.8255C225.574 88.2728 225.468 88.6432 225.255 88.9365C225.05 89.2298 224.753 89.4498 224.364 89.5965C223.983 89.7358 223.525 89.8055 222.989 89.8055ZM226.785 89.7505V88.8595L229.689 86.0325C229.968 85.7685 230.191 85.5228 230.36 85.2955C230.529 85.0682 230.65 84.8408 230.723 84.6135C230.804 84.3788 230.844 84.1258 230.844 83.8545C230.844 83.6125 230.796 83.3998 230.701 83.2165C230.613 83.0258 230.455 82.8792 230.228 82.7765C230.001 82.6738 229.678 82.6225 229.26 82.6225H227.038V81.7645C227.375 81.7205 227.749 81.6802 228.16 81.6435C228.578 81.5995 229.022 81.5775 229.491 81.5775C230.114 81.5775 230.602 81.6655 230.954 81.8415C231.313 82.0102 231.566 82.2558 231.713 82.5785C231.867 82.8938 231.944 83.2678 231.944 83.7005C231.944 84.0745 231.893 84.4192 231.79 84.7345C231.695 85.0425 231.544 85.3432 231.339 85.6365C231.134 85.9225 230.87 86.2232 230.547 86.5385L228.27 88.7385H232.23V89.7505H226.785Z" fill="white"/>
<path d="M264.747 89.8055C264.271 89.8055 263.787 89.7908 263.295 89.7615C262.804 89.7395 262.357 89.7102 261.953 89.6735V88.8045H264.78C265.088 88.8045 265.349 88.7568 265.561 88.6615C265.781 88.5588 265.946 88.4158 266.056 88.2325C266.174 88.0492 266.232 87.8402 266.232 87.6055V86.8135C266.232 86.4762 266.133 86.2122 265.935 86.0215C265.745 85.8235 265.444 85.7245 265.033 85.7245H264.241C263.941 85.7245 263.702 85.7905 263.526 85.9225C263.35 86.0545 263.237 86.2598 263.185 86.5385H262.14L262.371 81.6435H267.057V82.6335H263.328L263.207 85.2955C263.303 85.1562 263.457 85.0352 263.669 84.9325C263.882 84.8298 264.146 84.7785 264.461 84.7785H265.396C265.822 84.7785 266.177 84.8592 266.463 85.0205C266.749 85.1818 266.966 85.4018 267.112 85.6805C267.259 85.9592 267.332 86.2745 267.332 86.6265V87.8255C267.332 88.2728 267.226 88.6432 267.013 88.9365C266.808 89.2298 266.511 89.4498 266.122 89.5965C265.741 89.7358 265.283 89.8055 264.747 89.8055ZM272.217 89.7395V87.7925H268.477L268.246 87.2205L271.172 81.6435H272.305L269.544 86.8465H272.217V84.8555L272.448 84.0525H273.328V86.8465H274.351V87.6055L273.328 87.7925V89.7395H272.217Z" fill="white"/>
<path d="M305.4 89.8055C304.923 89.8055 304.439 89.7908 303.948 89.7615C303.456 89.7395 303.009 89.7102 302.606 89.6735V88.8045H305.433C305.741 88.8045 306.001 88.7568 306.214 88.6615C306.434 88.5588 306.599 88.4158 306.709 88.2325C306.826 88.0492 306.885 87.8402 306.885 87.6055V86.8135C306.885 86.4762 306.786 86.2122 306.588 86.0215C306.397 85.8235 306.096 85.7245 305.686 85.7245H304.894C304.593 85.7245 304.355 85.7905 304.179 85.9225C304.003 86.0545 303.889 86.2598 303.838 86.5385H302.793L303.024 81.6435H307.71V82.6335H303.981L303.86 85.2955C303.955 85.1562 304.109 85.0352 304.322 84.9325C304.534 84.8298 304.798 84.7785 305.114 84.7785H306.049C306.474 84.7785 306.83 84.8592 307.116 85.0205C307.402 85.1818 307.618 85.4018 307.765 85.6805C307.911 85.9592 307.985 86.2745 307.985 86.6265V87.8255C307.985 88.2728 307.878 88.6432 307.666 88.9365C307.46 89.2298 307.163 89.4498 306.775 89.5965C306.393 89.7358 305.935 89.8055 305.4 89.8055ZM311.461 89.7835C311.175 89.7835 310.907 89.7578 310.658 89.7065C310.416 89.6478 310.203 89.5562 310.02 89.4315C309.837 89.2995 309.694 89.1272 309.591 88.9145C309.488 88.7018 309.437 88.4378 309.437 88.1225V86.9785C309.437 86.7292 309.485 86.5128 309.58 86.3295C309.683 86.1388 309.807 85.9848 309.954 85.8675C310.108 85.7502 310.269 85.6732 310.438 85.6365C310.211 85.5338 310.035 85.4092 309.91 85.2625C309.793 85.1085 309.712 84.9435 309.668 84.7675C309.624 84.5842 309.602 84.3972 309.602 84.2065V83.2715C309.602 82.8682 309.683 82.5418 309.844 82.2925C310.005 82.0432 310.225 81.8635 310.504 81.7535C310.783 81.6435 311.087 81.5885 311.417 81.5885H312.946C313.291 81.5885 313.591 81.6435 313.848 81.7535C314.105 81.8635 314.306 82.0432 314.453 82.2925C314.6 82.5418 314.673 82.8682 314.673 83.2715V84.2065C314.673 84.3238 314.658 84.4522 314.629 84.5915C314.6 84.7235 314.552 84.8555 314.486 84.9875C314.427 85.1122 314.347 85.2222 314.244 85.3175C314.141 85.4128 314.02 85.4788 313.881 85.5155C314.123 85.5668 314.31 85.6695 314.442 85.8235C314.581 85.9702 314.68 86.1425 314.739 86.3405C314.798 86.5312 314.827 86.7255 314.827 86.9235V88.1225C314.827 88.5405 314.746 88.8705 314.585 89.1125C314.424 89.3472 314.2 89.5195 313.914 89.6295C313.635 89.7322 313.313 89.7835 312.946 89.7835H311.461ZM311.637 88.8375H312.715C313.074 88.8375 313.331 88.7642 313.485 88.6175C313.646 88.4635 313.727 88.2398 313.727 87.9465V87.0225C313.727 86.6925 313.646 86.4542 313.485 86.3075C313.324 86.1608 313.056 86.0875 312.682 86.0875H311.637C311.527 86.0875 311.406 86.1058 311.274 86.1425C311.149 86.1718 311.032 86.2232 310.922 86.2965C310.812 86.3698 310.72 86.4688 310.647 86.5935C310.581 86.7108 310.548 86.8538 310.548 87.0225V87.9465C310.548 88.2692 310.647 88.5002 310.845 88.6395C311.05 88.7715 311.314 88.8375 311.637 88.8375ZM311.637 85.1415H312.671C312.906 85.1415 313.089 85.0975 313.221 85.0095C313.353 84.9142 313.448 84.7968 313.507 84.6575C313.566 84.5108 313.595 84.3642 313.595 84.2175V83.5245C313.595 83.1432 313.518 82.8828 313.364 82.7435C313.217 82.6042 313.001 82.5345 312.715 82.5345H311.637C311.3 82.5345 311.054 82.6078 310.9 82.7545C310.753 82.9012 310.68 83.1578 310.68 83.5245V84.2175C310.68 84.5035 310.757 84.7308 310.911 84.8995C311.065 85.0608 311.307 85.1415 311.637 85.1415Z" fill="white"/>
</svg>
